<svg xmlns="http://www.w3.org/2000/svg" viewBox="0 0 1600 640" width="1600" height="640" preserveAspectRatio="xMidYMid slice"><style>.c{fill:none;stroke:#5fa383;stroke-width:1.5;vector-effect:non-scaling-stroke;opacity:.55}</style><defs><linearGradient id="g" x1="0" y1="0" x2="0" y2="1"><stop offset="0" stop-color="#e6f3ea"/><stop offset="1" stop-color="#cbe4d6"/></linearGradient><path id="a" d="M0-100C45-105 95-60 100-5 105 50 60 95 5 100-50 105-100 60-98 5-96-45-50-96 0-100z"/><path id="b" d="M10-96C70-90 108-30 92 25 78 75 20 104-30 92-85 80-110 20-88-30-70-75-30-100 10-96z"/></defs><rect width="1600" height="640" fill="url(#g)"/><g transform="translate(1240 340)"><use class="c" href="#b" transform="rotate(0) scale(.35)"/><use class="c" href="#b" transform="rotate(8) scale(.6)"/><use class="c" href="#b" transform="rotate(16) scale(.85)"/><use class="c" href="#b" transform="rotate(24) scale(1.1)"/><use class="c" href="#b" transform="rotate(32) scale(1.4)"/><use class="c" href="#b" transform="rotate(40) scale(1.7)"/><use class="c" href="#b" transform="rotate(48) scale(2)"/><use class="c" href="#b" transform="rotate(56) scale(2.3)"/></g><g transform="translate(260 140)"><use class="c" href="#a" transform="rotate(-6) scale(.3)"/><use class="c" href="#a" transform="rotate(-12) scale(.55)"/><use class="c" href="#a" transform="rotate(-18) scale(.8)"/><use class="c" href="#a" transform="rotate(-24) scale(1.05)"/><use class="c" href="#a" transform="rotate(-30) scale(1.3)"/></g><g transform="translate(560 600)"><use class="c" href="#b" transform="rotate(12) scale(.4)"/><use class="c" href="#b" transform="rotate(24) scale(.75)"/><use class="c" href="#b" transform="rotate(36) scale(1.1)"/><use class="c" href="#b" transform="rotate(48) scale(1.45)"/></g></svg>
