<svg xmlns="http://www.w3.org/2000/svg" viewBox="0 0 1600 640" width="1600" height="640" preserveAspectRatio="xMidYMid slice"><style>.c{fill:none;stroke:#5fa383;stroke-width:1.5;vector-effect:non-scaling-stroke;opacity:.55}</style><defs><linearGradient id="g" x1="0" y1="0" x2="0" y2="1"><stop offset="0" stop-color="#e6f3ea"/><stop offset="1" stop-color="#cbe4d6"/></linearGradient><path id="a" d="M0-100C45-105 95-60 100-5 105 50 60 95 5 100-50 105-100 60-98 5-96-45-50-96 0-100z"/><path id="b" d="M10-96C70-90 108-30 92 25 78 75 20 104-30 92-85 80-110 20-88-30-70-75-30-100 10-96z"/></defs><rect width="1600" height="640" fill="url(#g)"/><g transform="translate(300 330)"><use class="c" href="#a" transform="rotate(0) scale(.35)"/><use class="c" href="#a" transform="rotate(7) scale(.6)"/><use class="c" href="#a" transform="rotate(14) scale(.85)"/><use class="c" href="#a" transform="rotate(21) scale(1.1)"/><use class="c" href="#a" transform="rotate(28) scale(1.4)"/><use class="c" href="#a" transform="rotate(35) scale(1.7)"/><use class="c" href="#a" transform="rotate(42) scale(2)"/><use class="c" href="#a" transform="rotate(49) scale(2.35)"/><use class="c" href="#a" transform="rotate(56) scale(2.7)"/></g><g transform="translate(1160 210)"><use class="c" href="#b" transform="rotate(0) scale(.3)"/><use class="c" href="#b" transform="rotate(-8) scale(.55)"/><use class="c" href="#b" transform="rotate(-16) scale(.8)"/><use class="c" href="#b" transform="rotate(-24) scale(1.05)"/><use class="c" href="#b" transform="rotate(-32) scale(1.3)"/><use class="c" href="#b" transform="rotate(-40) scale(1.55)"/><use class="c" href="#b" transform="rotate(-48) scale(1.8)"/><use class="c" href="#b" transform="rotate(-56) scale(2.05)"/></g><g transform="translate(1490 570)"><use class="c" href="#a" transform="rotate(10) scale(.4)"/><use class="c" href="#a" transform="rotate(20) scale(.7)"/><use class="c" href="#a" transform="rotate(30) scale(1)"/><use class="c" href="#a" transform="rotate(40) scale(1.3)"/><use class="c" href="#a" transform="rotate(50) scale(1.6)"/></g></svg>
